<?xml version="1.0" encoding="UTF-8" standalone="no"?>
<!-- Created with Inkscape (http://www.inkscape.org/) -->

<svg
   xmlns:dc="http://purl.org/dc/elements/1.1/"
   xmlns:cc="http://creativecommons.org/ns#"
   xmlns:rdf="http://www.w3.org/1999/02/22-rdf-syntax-ns#"
   xmlns:svg="http://www.w3.org/2000/svg"
   xmlns="http://www.w3.org/2000/svg"
   xmlns:sodipodi="http://sodipodi.sourceforge.net/DTD/sodipodi-0.dtd"
   xmlns:inkscape="http://www.inkscape.org/namespaces/inkscape"
   width="200mm"
   height="200mm"
   viewBox="0 0 200 200"
   version="1.1"
   id="svg8"
   sodipodi:docname="househeart.svg"
   inkscape:version="0.92.3 (2405546, 2018-03-11)">
  <defs
     id="defs2" />
  <sodipodi:namedview
     id="base"
     pagecolor="#ffffff"
     bordercolor="#666666"
     borderopacity="1.0"
     inkscape:pageopacity="0.0"
     inkscape:pageshadow="2"
     inkscape:zoom="0.70710678"
     inkscape:cx="506.30144"
     inkscape:cy="460.17149"
     inkscape:document-units="mm"
     inkscape:current-layer="layer2"
     showgrid="false"
     showguides="false"
     inkscape:window-width="1920"
     inkscape:window-height="1011"
     inkscape:window-x="0"
     inkscape:window-y="0"
     inkscape:window-maximized="1">
    <inkscape:grid
       type="xygrid"
       id="grid3713" />
  </sodipodi:namedview>
  <metadata
     id="metadata5">
    <rdf:RDF>
      <cc:Work
         rdf:about="">
        <dc:format>image/svg+xml</dc:format>
        <dc:type
           rdf:resource="http://purl.org/dc/dcmitype/StillImage" />
        <dc:title></dc:title>
      </cc:Work>
    </rdf:RDF>
  </metadata>
  <g
     inkscape:groupmode="layer"
     id="layer2"
     inkscape:label="Layer 2"
     transform="translate(0,-97)">
    <g
       id="g17419"
       transform="matrix(6.030706,0,0,6.030706,-283.11604,-435.67871)">
      <g
         transform="translate(-0.85989554,-6.1515625)"
         id="g17064">
        <g
           id="g17085">
          <path
             inkscape:connector-curvature="0"
             id="path3820"
             d="m 53.842757,127.53443 c -1.846599,-0.0375 -2.358739,-0.07 -2.410045,-0.15302 -0.07301,-0.11813 -0.110177,-1.91385 -0.154784,-7.47796 -0.02603,-3.24823 -0.06111,-6.25137 -0.07793,-6.67364 -0.0357,-0.8959 5.29e-4,-0.85752 -0.573395,-0.60685 -0.729898,0.31877 -0.995513,0.34351 -1.062482,0.0989 -0.08376,-0.3059 -0.131423,-1.5532 -0.132093,-3.45706 l -7.94e-4,-1.9924 0.921317,-0.88706 0.921316,-0.88707 v -4.66973 c 0,-4.093539 0.0087,-4.673064 0.0704,-4.69675 0.03872,-0.01487 0.80944,-0.03014 1.712704,-0.03395 1.772946,-0.0075 1.762207,-0.0088 2.061766,0.254204 0.303879,0.266811 0.315647,0.359463 0.365873,2.880788 0.02458,1.234328 0.05993,2.324498 0.07853,2.422588 l 0.03383,0.17835 0.425222,-0.36597 c 0.233873,-0.20128 1.233247,-1.0682 2.22083,-1.926493 3.412744,-2.965942 4.887685,-4.1959 5.67826,-4.735107 0.327311,-0.223242 0.409173,-0.259353 0.532146,-0.23476 0.190294,0.03806 0.595982,0.299215 1.065416,0.685848 0.327126,0.269425 10.769497,9.241912 12.981117,11.153872 l 0.79139,0.68416 v 2.87233 c 0,2.26644 -0.0125,2.8723 -0.0591,2.87219 -0.0325,-10e-5 -0.27167,-0.0404 -0.53153,-0.0896 -0.25986,-0.0492 -0.57123,-0.10326 -0.69194,-0.12012 l -0.21947,-0.0307 -0.0281,0.62817 c -0.0155,0.3455 -0.0499,2.39286 -0.0765,4.54968 -0.0575,4.66328 -0.1389,8.80104 -0.18163,9.23298 l -0.0307,0.31092 -0.22677,0.056 c -0.59687,0.14732 -1.87051,0.16681 -11.750351,0.17981 -5.444038,0.007 -10.687685,-0.003 -11.652552,-0.0226 z m 22.566584,-9.03658 -4e-5,-8.09106 0.50794,0.0285 c 0.4092,0.0229 0.57053,0.0547 0.82992,0.1632 0.26311,0.1101 0.32933,0.12285 0.36218,0.0697 0.054,-0.0874 0.0957,-0.82466 0.10851,-1.9185 l 0.0105,-0.90118 -5.29167,-4.55216 c -5.338087,-4.592095 -7.58791,-6.517782 -8.198286,-7.017149 -0.266797,-0.218276 -0.350779,-0.263901 -0.423775,-0.230225 -0.05007,0.0231 -1.298501,1.07613 -2.774291,2.340065 -5.005131,4.286629 -6.588011,5.568569 -6.875822,5.568569 -0.262755,0 -0.356359,-0.9065 -0.463476,-4.488473 -0.02914,-0.974469 -0.06736,-1.878068 -0.08493,-2.007997 l -0.03194,-0.236236 -0.448366,-0.03015 c -0.246602,-0.01659 -0.645033,-0.03253 -0.885401,-0.03544 l -0.437036,-0.0053 v 4.502096 4.50209 l -0.454639,0.49428 c -0.563729,0.61288 -0.787366,0.90437 -0.924618,1.20514 -0.09862,0.2161 -0.108162,0.31498 -0.12432,1.28746 -0.0096,0.57936 -0.0044,1.10558 0.01161,1.16937 0.03682,0.14669 0.112808,0.14639 0.537903,-0.002 0.620033,-0.21663 0.889881,-0.132 1.025165,0.32151 0.122563,0.41086 0.162044,2.12539 0.210651,9.14763 0.02778,4.01297 0.06347,6.65186 0.09034,6.67874 0.0273,0.0273 4.421944,0.0575 11.399874,0.0784 6.245497,0.0187 11.573377,0.0377 11.839727,0.0422 l 0.48429,0.008 z m -24.438813,1.60408 c -0.0087,-0.21311 -0.01582,-0.026 -0.01579,0.41573 5.3e-5,0.44176 0.0072,0.61612 0.01587,0.38747 0.0087,-0.22866 0.0086,-0.5901 -1.01e-4,-0.8032 z"
             style="stroke-width:0.04724703" />
        </g>
        <path
           style="fill:#ff0000;stroke-width:0.03340869"
           d="m 56.187808,124.45961 c -0.26698,-0.0812 -0.559863,-0.3276 -0.696005,-0.58551 -0.08195,-0.15524 -0.08888,-0.19967 -0.08888,-0.56929 0,-0.37963 0.0051,-0.41015 0.0966,-0.57522 0.129259,-0.23326 0.422696,-0.52342 0.633727,-0.62666 0.177258,-0.0867 0.31818,-0.11055 1.491353,-0.25231 0.321559,-0.0389 0.757545,-0.10001 0.968854,-0.13592 1.028322,-0.17472 2.505652,-0.64145 2.505652,-0.7916 0,-0.0892 -0.225338,-0.33577 -2.555904,-2.79663 -0.626465,-0.6615 -1.258565,-1.33091 -1.404662,-1.48759 -2.088592,-2.23985 -3.493408,-4.69979 -3.660855,-6.41042 -0.04875,-0.49809 -0.01844,-1.53598 0.05476,-1.87403 0.134268,-0.62021 0.553709,-1.56934 0.959665,-2.17157 l 0.213942,-0.31738 1.150247,-0.007 1.150247,-0.007 -0.180531,0.10771 c -0.742992,0.44329 -1.329608,1.16243 -1.648619,2.02105 -0.06536,0.17593 -0.07219,0.27248 -0.08444,1.19367 -0.01791,1.34727 0.0075,1.48621 0.424193,2.31651 0.668399,1.33194 1.752952,2.81428 3.389355,4.6325 1.079805,1.19977 3.469217,3.61282 3.783717,3.82113 0.207068,0.13716 0.335536,0.13465 0.733305,-0.0143 0.922285,-0.34544 4.271098,-1.94875 5.47651,-2.622 0.984414,-0.54981 1.807321,-1.22559 2.561535,-2.10354 0.62662,-0.72942 1.083037,-1.42478 1.578856,-2.40542 0.661326,-1.30798 0.859684,-1.97097 0.907306,-3.03257 0.0447,-0.99651 -0.112987,-1.48236 -0.674214,-2.07729 -0.594092,-0.62977 -1.429567,-1.07644 -2.536004,-1.35584 -0.732857,-0.18506 -1.173007,-0.22951 -2.27179,-0.22941 -1.053827,9e-5 -1.287478,0.0287 -1.907772,0.23331 -0.368467,0.12156 -0.916448,0.38826 -1.01204,0.49255 -0.07843,0.0856 -0.07963,0.0961 -0.05859,0.5143 0.05597,1.11263 0.06373,1.80109 0.02299,2.04124 -0.05866,0.34579 -0.229682,0.66865 -0.498962,0.94195 -0.319884,0.32466 -0.380108,0.35031 -0.822634,0.35031 -0.350208,0 -0.379315,-0.005 -0.595741,-0.11202 -0.161185,-0.0794 -0.324131,-0.20473 -0.558748,-0.42992 -0.429103,-0.41187 -0.53867,-0.61657 -0.559138,-1.04464 -0.02313,-0.48372 0.03564,-0.77514 0.333367,-1.65315 0.155596,-0.45886 0.273542,-0.86275 0.275336,-0.94284 0.0026,-0.11696 -0.01619,-0.16019 -0.113789,-0.26153 -0.06431,-0.0668 -0.206005,-0.17661 -0.314873,-0.24408 l -0.19794,-0.12268 5.406133,-0.008 5.406131,-0.008 0.153903,0.12426 c 0.338894,0.2736 1.169011,1.13483 1.319908,1.36938 0.451297,0.70146 0.616759,1.47344 0.577956,2.6965 -0.02703,0.85188 -0.153575,1.35177 -0.681556,2.69226 -0.411771,1.04544 -0.837203,1.80705 -1.334326,2.38872 -0.563941,0.65984 -1.742509,1.85466 -2.473489,2.50758 -0.781672,0.6982 -1.195123,0.95477 -3.134519,1.9451 -1.612431,0.82337 -2.676831,1.37968 -2.882087,1.50632 -0.08193,0.0506 -0.138608,0.10929 -0.13325,0.13808 0.0051,0.0276 0.109532,0.12529 0.232011,0.21716 0.249732,0.18734 1.016267,0.655 1.197861,0.73081 l 0.11838,0.0494 0.733544,-0.53684 c 1.45706,-1.06634 2.167901,-1.49035 3.105557,-1.85244 0.659054,-0.2545 1.189099,-0.31305 1.504487,-0.16618 0.18533,0.0863 0.457864,0.33433 0.593421,0.54006 0.187132,0.28401 0.256598,0.953 0.128281,1.23546 -0.123421,0.27168 -0.377063,0.41675 -0.729287,0.41713 -0.273696,2.7e-4 -0.330348,-0.0707 -0.3966,-0.49685 -0.05822,-0.37453 -0.126164,-0.6042 -0.190897,-0.64533 -0.234243,-0.14884 -1.496219,0.48349 -2.446202,1.22569 -0.301297,0.23539 -0.618062,0.55714 -0.618062,0.62779 0,0.17487 0.663956,0.41626 1.529128,0.55593 0.656807,0.10603 2.19538,0.17784 2.306053,0.10764 0.03226,-0.0205 0.04077,-0.1229 0.03341,-0.40185 l -0.0099,-0.37438 0.268777,-0.26347 c 0.291227,-0.28546 0.392102,-0.33346 0.557152,-0.26509 0.172868,0.0716 0.635513,0.55483 0.743516,0.77659 0.333764,0.68531 -0.238242,1.38499 -1.373275,1.6798 -0.262318,0.0681 -0.439182,0.0892 -0.864343,0.10306 -0.853906,0.0278 -1.496399,-0.085 -3.090305,-0.54271 -1.716767,-0.49294 -2.522952,-0.80134 -4.442928,-1.69959 -0.376449,-0.17613 -0.724315,-0.32022 -0.773038,-0.32022 -0.154109,0 -1.645526,0.53826 -2.518143,0.90882 -0.591111,0.25101 -1.490742,0.70095 -2.138159,1.06937 -0.655198,0.37285 -0.899266,0.49433 -1.102484,0.54875 -0.178075,0.0477 -0.712891,0.0567 -0.852138,0.0143 z m 0.697609,-0.76169 c 0.18797,-0.10729 0.396263,-0.29583 0.457369,-0.41399 0.143529,-0.27756 -0.064,-0.46354 -0.517231,-0.46354 -0.376021,0 -0.535901,0.15223 -0.536813,0.51114 -5.3e-4,0.22522 0.0624,0.36883 0.192029,0.43798 0.109006,0.0581 0.20805,0.0406 0.404646,-0.0716 z m 7.148369,-14.78744 c 0.02492,-0.052 0.05373,-0.24729 0.06398,-0.43391 0.01786,-0.32503 0.01609,-0.33719 -0.04203,-0.28919 -0.0951,0.0786 -0.250484,0.43737 -0.250513,0.5785 -6.6e-5,0.25233 0.135742,0.33824 0.228555,0.1446 z"
           id="path3928"
           inkscape:connector-curvature="0" />
        <path
           style="fill:#ff0000;stroke-width:0.03340869"
           d="m 54.706055,105.86548 c 0.06276,-0.11306 0.522962,-0.61177 0.734465,-0.79592 0.480166,-0.41806 1.029782,-0.72173 1.745056,-0.96418 0.246021,-0.0834 0.560065,-0.16716 0.697876,-0.18616 0.742323,-0.1023 2.740401,-0.0932 3.376229,0.0154 0.723699,0.12363 1.416717,0.44428 2.319954,1.07342 0.805172,0.56084 0.816253,0.56627 1.050337,0.51483 0.102183,-0.0225 0.516528,-0.15783 0.920774,-0.30085 1.355617,-0.4796 1.159148,-0.45141 3.140417,-0.45048 2.557994,0.001 3.015437,0.0814 3.9175,0.68647 0.215722,0.1447 0.434451,0.2986 0.486066,0.34201 l 0.09385,0.0789 -5.385075,0.0228 -5.385075,0.0228 -0.247224,-0.11735 c -0.346229,-0.16434 -0.861703,-0.33889 -1.206096,-0.40841 -0.438726,-0.0886 -2.173271,-0.0871 -2.579624,0.002 -0.317529,0.0697 -0.846754,0.24732 -1.158742,0.38878 l -0.206918,0.0938 -1.173252,0.0204 c -1.114732,0.0194 -1.171617,0.0175 -1.140513,-0.0385 z"
           id="path3930"
           inkscape:connector-curvature="0" />
        <path
           style="fill:#c8b7b7;stroke-width:0.00292326"
           d="m 56.327345,124.47248 c -0.100079,-0.005 -0.187614,-0.0301 -0.292217,-0.0839 -0.291393,-0.14998 -0.558162,-0.45954 -0.607875,-0.7054 -0.0086,-0.0427 -0.01175,-0.0884 -0.01505,-0.2217 -0.0043,-0.17166 0.0016,-0.4252 0.01209,-0.51315 0.01156,-0.0979 0.06834,-0.21445 0.170593,-0.35018 0.102491,-0.13605 0.277778,-0.31109 0.402158,-0.40159 0.17339,-0.12616 0.298988,-0.16483 0.738122,-0.22729 0.163708,-0.0233 0.744622,-0.0967 0.76517,-0.0967 0.01582,0 0.02738,0.0223 0.141671,0.27333 0.180501,0.39646 0.724889,1.61701 0.722339,1.61953 -0.0016,0.002 -0.220856,0.12499 -0.363408,0.20455 -0.585626,0.32682 -0.80572,0.43227 -0.988087,0.4734 -0.0573,0.0129 -0.114847,0.0184 -0.263067,0.0252 -0.06515,0.003 -0.382114,0.006 -0.422413,0.004 z m 0.369017,-0.6833 c 0.08125,-0.021 0.219924,-0.0977 0.343154,-0.1897 0.117708,-0.0879 0.230761,-0.19951 0.285419,-0.28175 0.06393,-0.0962 0.083,-0.20425 0.04991,-0.28286 -0.03538,-0.084 -0.133186,-0.15232 -0.268452,-0.18739 -0.07694,-0.02 -0.121179,-0.0249 -0.241368,-0.0269 -0.19811,-0.003 -0.296355,0.0144 -0.38276,0.0688 -0.07976,0.0503 -0.135898,0.12127 -0.165177,0.20895 -0.02365,0.0708 -0.03223,0.14443 -0.02983,0.25591 0.0032,0.14939 0.02799,0.24291 0.08593,0.32431 0.02614,0.0367 0.07433,0.0795 0.112609,0.1 0.03303,0.0177 0.05195,0.0207 0.120727,0.0192 0.05345,-10e-4 0.06507,-0.002 0.08984,-0.009 z"
           id="path3954"
           inkscape:connector-curvature="0" />
      </g>
      <ellipse
         ry="0.36380208"
         rx="0.40514323"
         cy="115.347"
         cx="70.916603"
         id="path17080"
         style="fill:#808080;stroke-width:0.26458332" />
      <ellipse
         ry="0.31419271"
         rx="0.41341144"
         cy="116.15729"
         cx="71.6194"
         id="path17082"
         style="fill:#808080;stroke-width:0.26458332" />
    </g>
  </g>
</svg>
